<svg version="1.1" id="Layer_1" xmlns="http://www.w3.org/2000/svg" xmlns:xlink="http://www.w3.org/1999/xlink" x="0px" y="0px"
	 width="100%" viewBox="0 0 900 900" enable-background="new 0 0 900 900" xml:space="preserve">
<path fill="#000000" opacity="1.000000" stroke="none" 
	d="
M525.000000,901.000000 
	C350.000000,901.000000 175.500000,901.000000 1.000000,901.000000 
	C1.000000,601.000000 1.000000,301.000000 1.000000,1.000000 
	C301.000000,1.000000 601.000000,1.000000 901.000000,1.000000 
	C901.000000,301.000000 901.000000,601.000000 901.000000,901.000000 
	C775.833313,901.000000 650.666687,901.000000 525.000000,901.000000 
M210.283646,202.044785 
	C206.542236,202.888290 204.225662,205.008148 203.740982,209.521225 
	C203.185730,210.035767 202.630478,210.550308 201.383362,211.174362 
	C200.418121,211.785919 199.270401,212.227066 198.515625,213.035187 
	C190.223877,221.912964 185.483307,232.789352 182.316956,244.217834 
	C179.544815,254.223480 178.118423,264.578217 178.171799,275.410278 
	C178.101761,277.901581 177.971100,280.392883 177.970993,282.884186 
	C177.969803,310.020081 177.999817,337.155975 178.000748,364.291870 
	C178.003647,449.362518 177.992752,534.433167 178.036224,619.503784 
	C178.036972,620.976135 178.652313,622.448303 179.007431,624.861816 
	C179.006821,628.277832 178.821304,631.708984 179.097443,635.102478 
	C179.206451,636.441895 180.344116,637.697754 181.120926,639.672668 
	C181.191177,640.127014 181.261414,640.581299 180.896378,641.680115 
	C180.630463,642.785706 179.987625,643.952820 180.156616,644.987366 
	C181.953766,655.989685 185.728317,666.251343 191.224976,676.000000 
	C202.683563,696.322510 220.129410,709.053528 241.560959,717.168274 
	C252.116226,721.164795 263.056152,720.525024 274.598572,721.155457 
	C280.157043,721.102722 285.721252,721.174622 291.270386,720.918762 
	C292.871918,720.844971 294.429993,719.828796 296.879791,719.184143 
	C298.917145,719.208008 300.954529,719.231934 303.392426,719.883667 
	C305.785919,720.255737 308.179230,720.952148 310.572937,720.953369 
	C414.340393,721.007263 518.107910,720.999451 621.875366,720.999390 
	C627.538452,720.999390 633.208252,721.156860 638.860474,720.909546 
	C640.598022,720.833496 642.287231,719.653564 644.725098,718.666626 
	C652.006592,717.743652 659.127014,716.280273 665.701416,712.788635 
	C666.667542,712.275513 667.902039,712.267456 668.992188,711.996399 
	C668.992188,711.996399 668.965881,711.971558 669.452209,712.462341 
	C671.245117,711.676575 673.150452,711.075317 674.807434,710.066345 
	C678.144653,708.034058 681.361694,705.802002 684.598999,703.609070 
	C686.598816,702.254395 689.458740,701.243652 690.340454,699.340759 
	C692.824951,693.978882 695.830750,689.793701 700.622253,689.723999 
	C703.128052,685.074585 705.120789,681.351257 707.141357,677.643066 
	C707.799133,676.435791 708.846985,675.348206 709.169800,674.068054 
	C710.335388,669.445435 715.668457,666.791138 715.102112,661.333740 
	C715.052673,660.857605 716.382385,660.344788 716.829712,659.685120 
	C717.461731,658.753235 718.206787,657.700989 718.308533,656.643066 
	C718.627197,653.329590 718.567749,649.981323 718.834839,646.661011 
	C719.447327,639.046875 720.672424,631.445435 720.734924,623.831360 
	C720.857544,608.902405 720.200989,593.968872 720.146729,579.036255 
	C720.039368,549.468323 720.123535,519.899658 720.125854,490.331299 
	C720.127380,470.039337 720.123657,449.747345 720.123718,429.455383 
	C720.123779,404.532990 720.126099,379.610565 720.126099,354.688171 
	C720.126099,326.390259 720.269104,298.091064 720.025757,269.795258 
	C719.961853,262.361816 718.680969,254.940353 718.002747,247.509399 
	C717.871399,246.069687 718.045044,244.600662 717.893433,243.164673 
	C717.742371,241.734711 717.625854,240.200089 717.016968,238.942413 
	C716.024414,236.892120 714.628235,235.039246 713.430054,233.086075 
	C709.526306,226.722229 706.281921,219.817978 701.581970,214.111526 
	C695.115723,206.260406 687.556396,199.308945 680.444641,191.992142 
	C680.128357,191.666840 679.629883,191.455765 679.177917,191.335907 
	C676.806213,190.706802 674.287903,190.434830 672.064880,189.473633 
	C660.233032,184.357712 648.213684,180.069550 634.897461,179.275879 
	C632.264648,178.850357 629.631897,178.424820 626.535828,177.270386 
	C624.716064,177.169769 622.896301,176.982254 621.076538,176.981796 
	C600.099731,176.976608 579.122986,177.015457 558.146179,177.012711 
	C462.582825,177.000168 367.019440,176.978058 270.724976,176.868057 
	C267.686066,177.432297 264.658630,178.069656 261.606140,178.547089 
	C252.443207,179.980301 243.015503,180.439499 234.262680,186.028473 
	C231.417435,187.219437 228.246902,187.952728 225.794174,189.695969 
	C220.571838,193.407639 213.916580,195.507965 211.003036,202.000610 
	C211.003036,202.000610 211.021866,202.028793 210.283646,202.044785 
M661.678345,716.509521 
	C661.678345,716.509521 661.393311,716.365601 661.393311,716.365601 
	C661.393311,716.365601 661.448242,716.673523 661.678345,716.509521 
M719.256653,244.483536 
	C719.256653,244.483536 719.555115,244.618927 719.555115,244.618927 
	C719.555115,244.618927 719.486694,244.308624 719.256653,244.483536 
z"/>
<path fill="#112A3D" opacity="1.000000" stroke="none" 
	d="
M302.991882,719.255798 
	C300.954529,719.231934 298.917145,719.208008 295.978088,719.160461 
	C288.397339,719.115784 281.718353,719.094727 274.570801,719.049866 
	C256.351990,719.955811 239.841263,715.450989 224.661285,706.622681 
	C206.813202,696.242737 194.785294,680.641235 187.419174,661.521667 
	C184.866104,654.894836 183.331482,647.875610 181.331665,641.035645 
	C181.261414,640.581299 181.191177,640.127014 181.077850,638.864380 
	C181.008316,515.359924 181.037216,392.663605 180.869537,269.967560 
	C180.852814,257.722504 183.464966,246.096909 188.184860,235.132446 
	C191.822296,226.682602 197.374435,219.056976 202.075226,211.064850 
	C202.630478,210.550308 203.185730,210.035767 204.170593,209.109100 
	C206.740753,206.474258 208.881317,204.251526 211.021866,202.028793 
	C211.021866,202.028793 211.003036,202.000610 211.347290,201.931000 
	C215.613312,199.165039 219.442520,196.319565 223.481659,193.812286 
	C227.925583,191.053757 232.562561,188.606216 237.533264,186.027618 
	C239.596863,185.854050 241.426010,186.081161 242.858826,185.432678 
	C252.645554,181.003128 263.082825,180.083237 273.543854,180.064346 
	C344.293732,179.936493 415.043976,180.005005 485.794098,179.984039 
	C535.567566,179.969299 585.341003,179.913574 635.114441,179.876144 
	C648.213684,180.069550 660.233032,184.357712 672.064880,189.473633 
	C674.287903,190.434830 676.806213,190.706802 679.177917,191.335907 
	C679.629883,191.455765 680.128357,191.666840 680.444641,191.992142 
	C687.556396,199.308945 695.115723,206.260406 701.581970,214.111526 
	C706.281921,219.817978 709.526306,226.722229 713.430054,233.086075 
	C714.628235,235.039246 716.024414,236.892120 717.016968,238.942413 
	C717.625854,240.200089 717.742371,241.734711 717.893433,243.164673 
	C718.045044,244.600662 717.871399,246.069687 718.002747,247.509399 
	C718.680969,254.940353 719.961853,262.361816 720.025757,269.795258 
	C720.269104,298.091064 720.126099,326.390259 720.126099,354.688171 
	C720.126099,379.610565 720.123779,404.532990 720.123718,429.455383 
	C720.123657,449.747345 720.127380,470.039337 720.125854,490.331299 
	C720.123535,519.899658 720.039368,549.468323 720.146729,579.036255 
	C720.200989,593.968872 720.857544,608.902405 720.734924,623.831360 
	C720.672424,631.445435 719.447327,639.046875 718.834839,646.661011 
	C718.567749,649.981323 718.627197,653.329590 718.308533,656.643066 
	C718.206787,657.700989 717.461731,658.753235 716.829712,659.685120 
	C716.382385,660.344788 715.052673,660.857605 715.102112,661.333740 
	C715.668457,666.791138 710.335388,669.445435 709.169800,674.068054 
	C708.846985,675.348206 707.799133,676.435791 707.141357,677.643066 
	C705.120789,681.351257 703.128052,685.074585 700.622253,689.723999 
	C695.830750,689.793701 692.824951,693.978882 690.340454,699.340759 
	C689.458740,701.243652 686.598816,702.254395 684.598999,703.609070 
	C681.361694,705.802002 678.144653,708.034058 674.807434,710.066345 
	C673.150452,711.075317 671.245117,711.676575 669.372925,712.192078 
	C669.424561,711.765564 669.555481,711.609314 669.686279,711.453003 
	C669.461609,711.643921 669.236938,711.834778 669.012329,712.025635 
	C667.902039,712.267456 666.667542,712.275513 665.701416,712.788635 
	C659.127014,716.280273 652.006592,717.743652 643.893188,718.821899 
	C564.825134,719.005310 486.588989,719.017822 408.352875,719.068726 
	C373.232513,719.091553 338.112213,719.191101 302.991882,719.255798 
M391.000000,287.000031 
	C391.000000,287.000031 390.995453,287.007843 390.489563,287.441986 
	C386.617889,286.990601 386.646912,290.770844 384.794312,292.527740 
	C382.407135,294.791565 379.040771,296.091736 376.883240,298.509369 
	C374.728516,300.923828 373.568695,304.218689 371.915009,307.094330 
	C371.601837,307.638947 371.047394,308.393890 370.555664,308.432526 
	C365.824677,308.804047 365.162811,312.593414 363.788025,316.209503 
	C363.641785,316.519775 363.717377,316.785461 363.991394,317.759125 
	C362.965576,322.085327 358.200195,325.053253 357.445526,327.987000 
	C356.043701,333.436218 352.975769,337.005341 349.345734,341.373199 
	C346.191711,346.993286 342.930756,352.556702 339.914246,358.249664 
	C336.993591,363.761719 338.358673,365.974091 344.514282,365.975067 
	C415.820190,365.986298 487.126251,366.041779 558.431702,365.857635 
	C563.962769,365.843353 569.489380,364.115692 575.513855,363.110962 
	C575.677246,363.075958 575.840576,363.040985 576.797668,363.003632 
	C579.333435,362.250061 581.966125,361.726501 584.389038,360.705170 
	C598.819336,354.622314 607.973572,343.205994 615.017334,329.810303 
	C623.605530,313.477570 631.952271,297.017670 640.571045,280.701324 
	C643.800110,274.588104 643.113586,273.084625 636.179871,273.083649 
	C569.388123,273.074097 502.596375,273.071289 435.804657,273.122559 
	C433.873810,273.124054 431.943390,273.743317 429.276428,274.076111 
	C428.540283,274.093475 427.804169,274.110840 426.157440,274.047577 
	C414.463776,274.214874 403.595245,277.046600 394.000000,284.000000 
	C394.000000,284.000000 394.004028,284.005554 393.409912,284.143311 
	C392.912811,284.728149 392.415710,285.312988 391.983887,285.952271 
	C391.983887,285.952271 391.921173,285.909790 391.477203,285.924561 
	C391.477203,285.924561 391.034698,285.963806 390.765259,286.171631 
	C390.713409,286.271027 390.593109,286.403839 390.622314,286.463684 
	C390.717072,286.657806 390.866638,286.825165 391.000000,287.000031 
M550.573792,447.621979 
	C553.097839,442.497375 555.621887,437.372772 558.229370,432.196777 
	C558.229370,432.196777 558.236816,432.099182 558.817200,431.814484 
	C563.037292,424.102783 567.514709,416.516815 571.370667,408.627136 
	C573.346497,404.584534 570.212036,403.974640 566.950256,403.976257 
	C503.161316,404.008362 439.371613,403.876709 375.584656,404.236847 
	C369.378235,404.271912 363.188751,407.307892 356.500214,408.961273 
	C356.500214,408.961273 356.012390,409.019409 355.246307,409.050476 
	C352.601196,410.006714 349.777496,410.637421 347.340942,411.973907 
	C334.802551,418.851410 324.757629,428.569305 317.904358,441.004547 
	C307.480560,459.918396 297.765167,479.223907 287.832947,498.406647 
	C285.400330,503.104950 286.283661,504.661957 291.726379,504.821655 
	C299.872559,505.060669 308.031494,504.983063 316.182678,504.871582 
	C319.125183,504.831329 322.061096,504.305145 325.666321,504.012573 
	C326.110626,504.010834 326.554901,504.009094 327.515991,504.359436 
	C328.677673,504.242432 329.839386,504.125427 331.917023,504.020325 
	C335.277802,504.015381 338.638580,504.010437 342.716461,504.406555 
	C348.811218,504.272797 354.906006,504.139008 361.937958,504.018860 
	C377.291382,504.017700 392.644836,504.016571 408.651642,504.396210 
	C411.101654,504.267273 413.551636,504.138367 416.876190,504.022980 
	C418.916931,504.018982 420.957642,504.014984 423.563538,504.374390 
	C425.043610,504.257996 426.523712,504.141632 428.919312,504.034912 
	C432.278778,504.029694 435.638245,504.024475 439.449371,504.347534 
	C440.300446,504.237946 441.151550,504.128357 442.938141,504.029449 
	C448.625122,504.022552 454.312103,504.015656 460.515808,504.361572 
	C461.677429,504.243073 462.839081,504.124573 464.900360,504.018707 
	C467.599426,504.019440 470.298492,504.020203 473.715973,504.417145 
	C482.151978,505.764923 490.303802,505.042175 498.786377,500.995697 
	C501.750214,499.774750 505.184906,499.117645 507.531616,497.157806 
	C509.473083,495.536407 508.903900,494.854889 511.880859,495.080597 
	C511.880859,495.080597 511.869720,495.249634 511.869720,495.249634 
	C511.869720,495.249634 511.978455,494.967651 512.704712,494.924164 
	C517.985474,490.895569 523.345764,486.964050 528.479431,482.755981 
	C529.498901,481.920288 529.348999,479.774933 530.265686,478.671631 
	C531.975342,476.614014 534.072144,474.878082 536.560547,472.629608 
	C541.050354,464.428009 545.540161,456.226410 550.002441,448.003052 
	C550.002441,448.003052 550.026794,448.020050 550.573792,447.621979 
M426.335510,540.467529 
	C424.366394,540.289551 422.397522,539.960693 420.428101,539.956909 
	C400.170990,539.918091 379.913757,539.923096 359.656586,539.938232 
	C355.174194,539.941528 350.649109,539.669067 346.221985,540.189636 
	C342.105011,540.673767 338.092499,542.046204 333.377441,543.047791 
	C332.586182,543.370483 331.794922,543.693176 330.303009,544.156250 
	C323.953583,548.419678 319.645691,555.559937 311.589325,557.448853 
	C311.251312,557.528137 311.034760,558.239685 310.812988,558.682434 
	C308.570068,563.158997 306.337891,567.640930 303.969330,571.986755 
	C303.969330,571.986755 303.831573,571.856689 303.810059,571.364136 
	C303.595276,571.011536 303.380463,570.658997 303.165649,570.306396 
	C303.038391,570.408936 302.858582,570.484985 302.791412,570.617859 
	C298.510010,579.091370 294.237793,587.569519 289.984589,596.019897 
	C289.984589,596.019897 289.999939,595.992493 289.486725,596.437805 
	C287.654449,600.291565 285.822174,604.145264 284.016022,607.984070 
	C284.016022,607.984070 284.041382,607.962097 283.446930,608.318909 
	C282.595642,609.730774 281.580322,611.070557 280.922150,612.567383 
	C278.396698,618.310303 279.488617,619.987549 285.838806,619.992737 
	C306.787750,620.009766 327.742889,620.255005 348.682800,619.808899 
	C357.602112,619.618835 366.694580,618.525635 373.461487,611.359192 
	C378.757294,612.763123 380.159149,605.961609 384.828735,605.946533 
	C385.549988,605.944214 386.413910,605.461060 386.966034,604.939880 
	C390.772186,601.347168 394.542999,597.715332 398.253540,594.024109 
	C399.165009,593.117432 399.948151,592.016907 400.552704,590.879211 
	C402.108368,587.951660 403.530853,584.953369 405.092560,582.044250 
	C405.092560,582.044250 404.984070,582.007141 405.307953,581.387817 
	C407.532837,577.926819 409.757721,574.465820 412.216583,570.789673 
	C412.377625,570.472473 412.298004,570.210266 412.181549,569.374390 
	C413.115204,568.247192 414.048889,567.119934 415.419861,565.606262 
	C415.605957,565.062378 415.792053,564.518494 416.544495,563.601929 
	C418.931549,558.715698 421.318573,553.829468 423.705627,548.943237 
	C423.419739,548.885010 423.133850,548.826782 422.847961,548.768555 
	C424.103241,547.741333 425.358551,546.714050 427.107880,545.282532 
	C425.069275,544.973999 424.084229,544.824951 421.782440,544.476562 
	C424.005615,543.250610 424.973206,542.717041 426.516174,541.991150 
	C426.677795,541.649658 426.839417,541.308105 426.335510,540.467529 
M359.476807,323.514252 
	C359.476807,323.514252 359.537354,323.486755 359.476807,323.514252 
z"/>
<path fill="#071019" opacity="1.000000" stroke="none" 
	d="
M201.729294,211.119614 
	C197.374435,219.056976 191.822296,226.682602 188.184860,235.132446 
	C183.464966,246.096909 180.852814,257.722504 180.869537,269.967560 
	C181.037216,392.663605 181.008316,515.359924 181.024078,638.523926 
	C180.344116,637.697754 179.206451,636.441895 179.097443,635.102478 
	C178.821304,631.708984 179.006821,628.277832 179.018097,623.928162 
	C179.001007,568.839966 178.957047,514.685364 178.949783,460.530823 
	C178.941483,398.712830 178.965866,336.894836 178.976028,275.076843 
	C178.118423,264.578217 179.544815,254.223480 182.316956,244.217834 
	C185.483307,232.789352 190.223877,221.912964 198.515625,213.035187 
	C199.270401,212.227066 200.418121,211.785919 201.729294,211.119614 
z"/>
<path fill="#0E1A23" opacity="1.000000" stroke="none" 
	d="
M635.005981,179.576019 
	C585.341003,179.913574 535.567566,179.969299 485.794098,179.984039 
	C415.043976,180.005005 344.293732,179.936493 273.543854,180.064346 
	C263.082825,180.083237 252.645554,181.003128 242.858826,185.432678 
	C241.426010,186.081161 239.596863,185.854050 237.181290,186.020874 
	C235.945084,186.006897 235.478699,186.004120 235.012314,186.001358 
	C243.015503,180.439499 252.443207,179.980301 261.606140,178.547089 
	C264.658630,178.069656 267.686066,177.432297 271.380341,177.284027 
	C273.684906,177.823700 275.334076,178.055069 276.983276,178.054962 
	C301.782074,178.053329 326.580841,178.001846 351.379639,177.999771 
	C443.252777,177.992065 535.125916,177.998291 626.999084,177.999283 
	C629.631897,178.424820 632.264648,178.850357 635.005981,179.576019 
z"/>
<path fill="#02050A" opacity="1.000000" stroke="none" 
	d="
M303.192139,719.569702 
	C338.112213,719.191101 373.232513,719.091553 408.352875,719.068726 
	C486.588989,719.017822 564.825134,719.005310 643.529907,718.978149 
	C642.287231,719.653564 640.598022,720.833496 638.860474,720.909546 
	C633.208252,721.156860 627.538452,720.999390 621.875366,720.999390 
	C518.107910,720.999451 414.340393,721.007263 310.572937,720.953369 
	C308.179230,720.952148 305.785919,720.255737 303.192139,719.569702 
z"/>
<path fill="#40647D" opacity="1.000000" stroke="none" 
	d="
M626.767456,177.634827 
	C535.125916,177.998291 443.252777,177.992065 351.379639,177.999771 
	C326.580841,178.001846 301.782074,178.053329 276.983276,178.054962 
	C275.334076,178.055069 273.684906,177.823700 271.745911,177.329681 
	C367.019440,176.978058 462.582825,177.000168 558.146179,177.012711 
	C579.122986,177.015457 600.099731,176.976608 621.076538,176.981796 
	C622.896301,176.982254 624.716064,177.169769 626.767456,177.634827 
z"/>
<path fill="#6299BC" opacity="1.000000" stroke="none" 
	d="
M178.573914,275.243561 
	C178.965866,336.894836 178.941483,398.712830 178.949783,460.530823 
	C178.957047,514.685364 179.001007,568.839966 179.004822,623.457520 
	C178.652313,622.448303 178.036972,620.976135 178.036224,619.503784 
	C177.992752,534.433167 178.003647,449.362518 178.000748,364.291870 
	C177.999817,337.155975 177.969803,310.020081 177.970993,282.884186 
	C177.971100,280.392883 178.101761,277.901581 178.573914,275.243561 
z"/>
<path fill="#0E1A23" opacity="1.000000" stroke="none" 
	d="
M181.114014,641.357910 
	C183.331482,647.875610 184.866104,654.894836 187.419174,661.521667 
	C194.785294,680.641235 206.813202,696.242737 224.661285,706.622681 
	C239.841263,715.450989 256.351990,719.955811 274.423218,719.271118 
	C274.479095,719.977661 274.213959,720.439209 273.948792,720.900696 
	C263.056152,720.525024 252.116226,721.164795 241.560959,717.168274 
	C220.129410,709.053528 202.683563,696.322510 191.224976,676.000000 
	C185.728317,666.251343 181.953766,655.989685 180.156616,644.987366 
	C179.987625,643.952820 180.630463,642.785706 181.114014,641.357910 
z"/>
<path fill="#071019" opacity="1.000000" stroke="none" 
	d="
M234.637497,186.014923 
	C235.478699,186.004120 235.945084,186.006897 236.763443,186.016418 
	C232.562561,188.606216 227.925583,191.053757 223.481659,193.812286 
	C219.442520,196.319565 215.613312,199.165039 211.359528,201.945099 
	C213.916580,195.507965 220.571838,193.407639 225.794174,189.695969 
	C228.246902,187.952728 231.417435,187.219437 234.637497,186.014923 
z"/>
<path fill="#02050A" opacity="1.000000" stroke="none" 
	d="
M274.273682,721.028076 
	C274.213959,720.439209 274.479095,719.977661 274.891785,719.294922 
	C281.718353,719.094727 288.397339,719.115784 295.542175,719.190674 
	C294.429993,719.828796 292.871918,720.844971 291.270386,720.918762 
	C285.721252,721.174622 280.157043,721.102722 274.273682,721.028076 
z"/>
<path fill="#071019" opacity="1.000000" stroke="none" 
	d="
M210.652756,202.036789 
	C208.881317,204.251526 206.740753,206.474258 204.314606,208.862000 
	C204.225662,205.008148 206.542236,202.888290 210.652756,202.036789 
z"/>
<path fill="#112A3D" opacity="1.000000" stroke="none" 
	d="
M661.563293,716.591553 
	C661.448242,716.673523 661.393311,716.365601 661.393311,716.365601 
	C661.393311,716.365601 661.678345,716.509521 661.563293,716.591553 
z"/>
<path fill="#112A3D" opacity="1.000000" stroke="none" 
	d="
M719.371704,244.396088 
	C719.486694,244.308624 719.555115,244.618927 719.555115,244.618927 
	C719.555115,244.618927 719.256653,244.483536 719.371704,244.396088 
z"/>
<path fill="#000000" opacity="1.000000" stroke="none" 
	d="
M427.067993,274.128174 
	C427.804169,274.110840 428.540283,274.093475 429.999939,274.272705 
	C440.818359,274.637451 450.913147,274.941925 461.008209,274.951172 
	C515.979431,275.001617 570.950745,274.954498 625.921875,275.030609 
	C630.193542,275.036530 634.464294,275.730927 640.184265,276.232330 
	C637.604858,281.062225 635.442871,285.029205 633.354736,289.034668 
	C625.452881,304.191956 617.742371,319.451874 609.635620,334.498474 
	C603.089783,346.647858 593.296997,355.299652 580.189880,360.069427 
	C578.643188,360.632263 577.392090,362.007355 576.003967,363.005981 
	C575.840576,363.040985 575.677246,363.075958 574.980591,362.889221 
	C567.227417,363.102814 560.007629,363.538116 552.482239,363.720276 
	C539.790344,363.314117 527.403992,363.161133 514.722595,363.096680 
	C512.227905,363.450378 510.028290,363.715515 507.516541,363.730896 
	C505.728943,363.320251 504.253601,363.019592 502.778107,363.018829 
	C453.847168,362.993378 404.916199,362.996582 355.529205,362.983551 
	C350.738098,362.971527 346.403015,362.971527 340.685516,362.971527 
	C343.758057,356.896973 346.443237,351.899567 348.801117,346.752289 
	C349.592346,345.025024 349.550049,342.915924 349.888733,340.981354 
	C352.975769,337.005341 356.043701,333.436218 357.445526,327.987000 
	C358.200195,325.053253 362.965576,322.085327 363.992493,317.389160 
	C363.993622,317.019196 363.978729,317.040375 364.103638,316.927429 
	C364.143890,316.527740 364.059235,316.240997 363.985016,315.967529 
	C363.995453,315.980804 364.022095,316.001404 364.022095,316.001404 
	C365.162811,312.593414 365.824677,308.804047 370.555664,308.432526 
	C371.047394,308.393890 371.601837,307.638947 371.915009,307.094330 
	C373.568695,304.218689 374.728516,300.923828 376.883240,298.509369 
	C379.040771,296.091736 382.407135,294.791565 384.794312,292.527740 
	C386.646912,290.770844 386.617889,286.990601 390.942749,287.084045 
	C391.645782,286.502106 391.820862,286.230011 391.921173,285.909790 
	C391.921173,285.909790 391.983887,285.952271 392.265228,285.882568 
	C393.032410,285.210449 393.518219,284.608002 394.004028,284.005554 
	C394.004028,284.005554 394.000000,284.000000 394.406708,284.001953 
	C396.425110,283.717621 398.069092,283.550751 399.643127,283.125153 
	C408.015320,280.861511 416.381897,278.574127 424.713654,276.167786 
	C425.619263,275.906219 426.288910,274.827728 427.067993,274.128174 
z"/>
<path fill="#000000" opacity="1.000000" stroke="none" 
	d="
M459.999084,504.008789 
	C454.312103,504.015656 448.625122,504.022552 442.248199,503.847015 
	C440.704742,503.782806 439.851227,503.901062 438.997711,504.019287 
	C435.638245,504.024475 432.278778,504.029694 428.183990,503.833008 
	C425.965240,503.757782 424.481812,503.884399 422.998383,504.010986 
	C420.957642,504.014984 418.916931,504.018982 416.117157,503.812714 
	C412.904846,503.740112 410.451538,503.877747 407.998260,504.015381 
	C392.644836,504.016571 377.291382,504.017700 361.115540,503.800415 
	C354.195221,503.723114 348.097290,503.864288 341.999359,504.005463 
	C338.638580,504.010437 335.277802,504.015381 331.204102,503.826904 
	C329.327209,503.758118 328.163208,503.882721 326.999207,504.007324 
	C326.554901,504.009094 326.110626,504.010834 324.978577,503.796082 
	C312.793762,503.277405 301.296692,502.975189 289.302277,502.659882 
	C289.945343,500.797241 290.189728,499.669617 290.699280,498.678314 
	C295.989380,488.387177 301.159729,478.029633 306.687195,467.866638 
	C312.650879,456.901611 318.758759,446.003815 325.177094,435.300598 
	C331.046478,425.512878 339.785400,418.781342 349.876343,413.634399 
	C352.122101,412.488922 353.977356,410.577942 356.012390,409.019409 
	C356.012390,409.019409 356.500214,408.961273 357.014343,409.167542 
	C364.069366,408.560181 370.610260,407.746552 377.466888,407.027832 
	C383.214478,407.179260 388.647766,407.176819 394.077789,407.309662 
	C399.043915,407.431122 404.006470,407.698883 409.397125,407.925476 
	C414.407104,407.928223 418.990601,407.879395 423.573944,407.892395 
	C437.503204,407.931885 451.432617,408.053375 465.361450,408.001495 
	C468.229095,407.990814 471.094513,407.367706 474.287964,407.214355 
	C486.955200,407.489349 499.295319,407.623260 511.635559,407.630829 
	C514.601318,407.632629 517.569214,407.004822 520.532837,407.031830 
	C527.833679,407.098328 535.131653,407.476868 542.432434,407.540131 
	C548.768005,407.595032 555.105774,407.389404 561.826416,407.308594 
	C564.243896,407.547211 566.277588,407.776154 568.978882,408.080292 
	C567.463806,411.085114 566.036011,413.625702 564.874268,416.282654 
	C562.583862,421.520721 560.440857,426.823303 558.236816,432.099182 
	C558.236816,432.099182 558.229370,432.196777 557.829712,432.226501 
	C554.962280,437.510834 552.494568,442.765442 550.026794,448.020050 
	C550.026794,448.020050 550.002441,448.003052 549.688599,448.114014 
	C543.909485,455.941498 538.507874,463.692413 536.007874,473.008301 
	C534.072144,474.878082 531.975342,476.614014 530.265686,478.671631 
	C529.348999,479.774933 529.498901,481.920288 528.479431,482.755981 
	C523.345764,486.964050 517.985474,490.895569 512.353271,494.960022 
	C512.001770,494.995880 512.030640,495.018341 512.030640,495.018341 
	C508.903900,494.854889 509.473083,495.536407 507.531616,497.157806 
	C505.184906,499.117645 501.750214,499.774750 498.103149,500.832306 
	C489.279114,501.786285 481.138336,502.903656 472.997559,504.020996 
	C470.298492,504.020203 467.599426,504.019440 464.195343,503.825500 
	C462.326569,503.757782 461.162842,503.883301 459.999084,504.008789 
z"/>
<path fill="#000000" opacity="1.000000" stroke="none" 
	d="
M405.006531,581.983337 
	C403.530853,584.953369 402.108368,587.951660 400.552704,590.879211 
	C399.948151,592.016907 399.165009,593.117432 398.253540,594.024109 
	C394.542999,597.715332 390.772186,601.347168 386.966034,604.939880 
	C386.413910,605.461060 385.549988,605.944214 384.828735,605.946533 
	C380.159149,605.961609 378.757294,612.763123 373.461487,611.359192 
	C366.694580,618.525635 357.602112,619.618835 348.682800,619.808899 
	C327.742889,620.255005 306.787750,620.009766 285.838806,619.992737 
	C279.488617,619.987549 278.396698,618.310303 280.922150,612.567383 
	C281.580322,611.070557 282.595642,609.730774 283.668091,608.480957 
	C283.584015,609.756348 283.278748,610.869690 282.761536,612.167114 
	C282.306915,612.847290 282.064209,613.343384 281.677795,614.012939 
	C281.568207,614.549866 281.602325,614.913269 281.636475,615.276733 
	C281.826782,614.904907 282.017120,614.533081 282.402527,613.941528 
	C282.745056,613.161011 282.892487,612.600098 283.308899,611.869873 
	C283.715210,610.466675 283.852539,609.232849 283.989899,607.998962 
	C285.822174,604.145264 287.654449,600.291565 289.885254,596.380188 
	C290.663635,596.294861 291.043549,596.267151 291.423431,596.239441 
	C291.378723,596.110168 291.323822,595.866028 291.290894,595.869019 
	C290.847015,595.908386 290.406250,595.982056 289.964722,596.047241 
	C294.237793,587.569519 298.510010,579.091370 302.791412,570.617859 
	C302.858582,570.484985 303.038391,570.408936 303.165649,570.306396 
	C303.380463,570.658997 303.595276,571.011536 303.726257,571.698364 
	C303.795837,572.062195 303.949280,572.091797 304.102722,572.121399 
	C306.337891,567.640930 308.570068,563.158997 310.812988,558.682434 
	C311.034760,558.239685 311.251312,557.528137 311.589325,557.448853 
	C319.645691,555.559937 323.953583,548.419678 330.647705,544.074219 
	C330.992371,543.992249 330.977112,543.970520 330.926788,544.243652 
	C332.250397,544.557312 333.624298,544.597961 334.998230,544.638611 
	C334.661743,544.082153 334.325256,543.525696 333.998596,542.984802 
	C334.008423,543.000366 334.034027,543.027588 334.034027,543.027588 
	C338.092499,542.046204 342.105011,540.673767 346.221985,540.189636 
	C350.649109,539.669067 355.174194,539.941528 359.656586,539.938232 
	C379.913757,539.923096 400.170990,539.918091 420.428101,539.956909 
	C422.397522,539.960693 424.366394,540.289551 426.200928,540.679382 
	C411.023102,540.954590 395.979828,541.017944 380.477020,541.018982 
	C369.916962,540.956604 359.816437,540.956604 349.715942,540.956604 
	C349.715515,541.274841 349.715118,541.593018 349.714691,541.911255 
	C360.121185,541.911255 370.527710,541.911255 381.404968,541.958740 
	C396.564056,542.065369 411.252411,542.124451 425.940796,542.183472 
	C424.973206,542.717041 424.005615,543.250610 421.782440,544.476562 
	C424.084229,544.824951 425.069275,544.973999 427.107880,545.282532 
	C425.358551,546.714050 424.103241,547.741333 422.847961,548.768555 
	C423.133850,548.826782 423.419739,548.885010 423.705627,548.943237 
	C421.318573,553.829468 418.931549,558.715698 416.271881,563.798767 
	C415.999268,563.995605 416.023254,564.011108 415.946777,563.760559 
	C415.247314,564.340027 414.624268,565.170044 413.848022,566.042480 
	C413.796448,566.056641 413.898102,566.028320 414.255615,565.995972 
	C414.681641,566.002869 414.851868,566.013916 415.013123,566.016113 
	C415.004150,566.007141 414.982544,565.992676 414.982544,565.992676 
	C414.048889,567.119934 413.115204,568.247192 412.092834,569.678711 
	C412.004150,569.983032 412.024994,569.957153 411.881012,570.072815 
	C411.676331,570.294556 411.537933,570.448853 411.568604,570.498169 
	C411.692596,570.697693 411.868622,570.864746 412.016174,571.032227 
	C412.006897,571.020691 411.982605,571.004761 411.982605,571.004761 
	C409.757721,574.465820 407.532837,577.926819 405.153503,581.693237 
	C404.999084,581.998657 405.006531,581.983337 405.006531,581.983337 
M289.578064,599.484192 
	C289.578064,599.484192 289.463348,599.550232 289.578064,599.484192 
M328.616943,546.511902 
	C328.616943,546.511902 328.442230,546.409668 328.442230,546.409668 
	C328.442230,546.409668 328.465027,546.609314 328.616943,546.511902 
z"/>
<path fill="#071019" opacity="1.000000" stroke="none" 
	d="
M576.400818,363.004791 
	C577.392090,362.007355 578.643188,360.632263 580.189880,360.069427 
	C593.296997,355.299652 603.089783,346.647858 609.635620,334.498474 
	C617.742371,319.451874 625.452881,304.191956 633.354736,289.034668 
	C635.442871,285.029205 637.604858,281.062225 640.184265,276.232330 
	C634.464294,275.730927 630.193542,275.036530 625.921875,275.030609 
	C570.950745,274.954498 515.979431,275.001617 461.008209,274.951172 
	C450.913147,274.941925 440.818359,274.637451 430.368103,274.271912 
	C431.943390,273.743317 433.873810,273.124054 435.804657,273.122559 
	C502.596375,273.071289 569.388123,273.074097 636.179871,273.083649 
	C643.113586,273.084625 643.800110,274.588104 640.571045,280.701324 
	C631.952271,297.017670 623.605530,313.477570 615.017334,329.810303 
	C607.973572,343.205994 598.819336,354.622314 584.389038,360.705170 
	C581.966125,361.726501 579.333435,362.250061 576.400818,363.004791 
z"/>
<path fill="#071019" opacity="1.000000" stroke="none" 
	d="
M552.787781,363.973389 
	C560.007629,363.538116 567.227417,363.102814 574.732666,362.925934 
	C569.489380,364.115692 563.962769,365.843353 558.431702,365.857635 
	C487.126251,366.041779 415.820190,365.986298 344.514282,365.975067 
	C338.358673,365.974091 336.993591,363.761719 339.914246,358.249664 
	C342.930756,352.556702 346.191711,346.993286 349.617249,341.177277 
	C349.550049,342.915924 349.592346,345.025024 348.801117,346.752289 
	C346.443237,351.899567 343.758057,356.896973 340.685516,362.971527 
	C346.403015,362.971527 350.738098,362.971527 355.857849,363.241241 
	C358.615875,363.680634 360.589142,363.997833 362.562469,363.998413 
	C410.984528,364.012878 459.406616,363.993774 507.828674,363.980652 
	C510.028290,363.715515 512.227905,363.450378 515.058838,363.335999 
	C528.055969,363.648956 540.421875,363.811157 552.787781,363.973389 
z"/>
<path fill="#071019" opacity="1.000000" stroke="none" 
	d="
M377.151184,406.932922 
	C370.610260,407.746552 364.069366,408.560181 357.259949,409.162354 
	C363.188751,407.307892 369.378235,404.271912 375.584656,404.236847 
	C439.371613,403.876709 503.161316,404.008362 566.950256,403.976257 
	C570.212036,403.974640 573.346497,404.584534 571.370667,408.627136 
	C567.514709,416.516815 563.037292,424.102783 558.527039,431.956848 
	C560.440857,426.823303 562.583862,421.520721 564.874268,416.282654 
	C566.036011,413.625702 567.463806,411.085114 568.978882,408.080292 
	C566.277588,407.776154 564.243896,407.547211 561.727783,407.920593 
	C559.982849,408.234253 558.683838,408.050720 557.468018,407.627960 
	C556.204529,407.188538 555.022400,406.023468 553.803040,406.021057 
	C527.190796,405.968567 500.578308,406.034119 473.507324,405.997681 
	C451.691406,405.969910 430.334015,406.021484 408.513580,406.004211 
	C399.266937,405.931915 390.482910,405.880890 381.700287,405.970428 
	C380.180817,405.985931 378.667389,406.596954 377.151184,406.932922 
z"/>
<path fill="#071019" opacity="1.000000" stroke="none" 
	d="
M355.629333,409.034943 
	C353.977356,410.577942 352.122101,412.488922 349.876343,413.634399 
	C339.785400,418.781342 331.046478,425.512878 325.177094,435.300598 
	C318.758759,446.003815 312.650879,456.901611 306.687195,467.866638 
	C301.159729,478.029633 295.989380,488.387177 290.699280,498.678314 
	C290.189728,499.669617 289.945343,500.797241 289.302277,502.659882 
	C301.296692,502.975189 312.793762,503.277405 324.645447,503.790161 
	C322.061096,504.305145 319.125183,504.831329 316.182678,504.871582 
	C308.031494,504.983063 299.872559,505.060669 291.726379,504.821655 
	C286.283661,504.661957 285.400330,503.104950 287.832947,498.406647 
	C297.765167,479.223907 307.480560,459.918396 317.904358,441.004547 
	C324.757629,428.569305 334.802551,418.851410 347.340942,411.973907 
	C349.777496,410.637421 352.601196,410.006714 355.629333,409.034943 
z"/>
<path fill="#071019" opacity="1.000000" stroke="none" 
	d="
M426.612732,274.087891 
	C426.288910,274.827728 425.619263,275.906219 424.713654,276.167786 
	C416.381897,278.574127 408.015320,280.861511 399.643127,283.125153 
	C398.069092,283.550751 396.425110,283.717621 394.408875,284.004089 
	C403.595245,277.046600 414.463776,274.214874 426.612732,274.087891 
z"/>
<path fill="#071019" opacity="1.000000" stroke="none" 
	d="
M473.356750,504.219055 
	C481.138336,502.903656 489.279114,501.786285 497.715637,500.875732 
	C490.303802,505.042175 482.151978,505.764923 473.356750,504.219055 
z"/>
<path fill="#071019" opacity="1.000000" stroke="none" 
	d="
M536.284180,472.818970 
	C538.507874,463.692413 543.909485,455.941498 549.702393,448.124878 
	C545.540161,456.226410 541.050354,464.428009 536.284180,472.818970 
z"/>
<path fill="#6299BC" opacity="1.000000" stroke="none" 
	d="
M380.936584,541.081360 
	C395.979828,541.017944 411.023102,540.954590 426.533691,540.928955 
	C426.839417,541.308105 426.677795,541.649658 426.228455,542.087280 
	C411.252411,542.124451 396.564056,542.065369 381.439453,541.751343 
	C381.003174,541.496338 380.936584,541.081360 380.936584,541.081360 
z"/>
<path fill="#071019" opacity="1.000000" stroke="none" 
	d="
M342.357910,504.205994 
	C348.097290,503.864288 354.195221,503.723114 360.646973,503.793579 
	C354.906006,504.139008 348.811218,504.272797 342.357910,504.205994 
z"/>
<path fill="#071019" opacity="1.000000" stroke="none" 
	d="
M550.300293,447.821014 
	C552.494568,442.765442 554.962280,437.510834 557.787964,432.252197 
	C555.621887,437.372772 553.097839,442.497375 550.300293,447.821014 
z"/>
<path fill="#071019" opacity="1.000000" stroke="none" 
	d="
M408.324951,504.205811 
	C410.451538,503.877747 412.904846,503.740112 415.679871,503.805939 
	C413.551636,504.138367 411.101654,504.267273 408.324951,504.205811 
z"/>
<path fill="#071019" opacity="1.000000" stroke="none" 
	d="
M423.280945,504.192688 
	C424.481812,503.884399 425.965240,503.757782 427.726227,503.828186 
	C426.523712,504.141632 425.043610,504.257996 423.280945,504.192688 
z"/>
<path fill="#071019" opacity="1.000000" stroke="none" 
	d="
M327.257599,504.183411 
	C328.163208,503.882721 329.327209,503.758118 330.746155,503.820984 
	C329.839386,504.125427 328.677673,504.242432 327.257599,504.183411 
z"/>
<path fill="#071019" opacity="1.000000" stroke="none" 
	d="
M460.257446,504.185181 
	C461.162842,503.883301 462.326569,503.757782 463.745514,503.819183 
	C462.839081,504.124573 461.677429,504.243073 460.257446,504.185181 
z"/>
<path fill="#071019" opacity="1.000000" stroke="none" 
	d="
M439.223541,504.183411 
	C439.851227,503.901062 440.704742,503.782806 441.780457,503.841675 
	C441.151550,504.128357 440.300446,504.237946 439.223541,504.183411 
z"/>
<path fill="#071019" opacity="1.000000" stroke="none" 
	d="
M393.706970,284.074432 
	C393.518219,284.608002 393.032410,285.210449 392.232605,285.855377 
	C392.415710,285.312988 392.912811,284.728149 393.706970,284.074432 
z"/>
<path fill="#000000" opacity="1.000000" stroke="none" 
	d="
M330.998016,544.004028 
	C331.794922,543.693176 332.586182,543.370483 333.705750,543.037720 
	C334.034027,543.027588 334.008423,543.000366 333.763641,543.215454 
	C332.671600,543.610474 331.824341,543.790466 330.977112,543.970459 
	C330.977112,543.970520 330.992371,543.992249 330.998016,544.004028 
z"/>
<path fill="#000000" opacity="1.000000" stroke="none" 
	d="
M415.988708,563.985107 
	C415.792053,564.518494 415.605957,565.062378 415.201202,565.799438 
	C414.982544,565.992676 415.004150,566.007141 415.058319,565.729248 
	C415.416077,564.971313 415.719666,564.491211 416.023254,564.011108 
	C416.023254,564.011108 415.999268,563.995605 415.988708,563.985107 
z"/>
<path fill="#000000" opacity="1.000000" stroke="none" 
	d="
M669.002197,712.010986 
	C669.236938,711.834778 669.461609,711.643921 669.686279,711.453003 
	C669.555481,711.609314 669.424561,711.765564 669.129761,711.946655 
	C668.965881,711.971558 668.992188,711.996399 669.002197,712.010986 
z"/>
<path fill="#000000" opacity="1.000000" stroke="none" 
	d="
M359.507080,323.500488 
	C359.537354,323.486755 359.476807,323.514252 359.507080,323.500488 
z"/>
<path fill="#000000" opacity="1.000000" stroke="none" 
	d="
M404.991577,582.002930 
	C404.984070,582.007141 405.092560,582.044250 405.049561,582.013794 
	C405.006531,581.983337 404.999084,581.998657 404.991577,582.002930 
z"/>
<path fill="#000000" opacity="1.000000" stroke="none" 
	d="
M411.990967,569.993042 
	C412.298004,570.210266 412.377625,570.472473 412.099609,570.897217 
	C411.982605,571.004761 412.006897,571.020691 412.027039,570.760498 
	C412.039764,570.319214 412.032379,570.138184 412.024994,569.957153 
	C412.024994,569.957153 412.004150,569.983032 411.990967,569.993042 
z"/>
<path fill="#071019" opacity="1.000000" stroke="none" 
	d="
M391.699188,285.917175 
	C391.820862,286.230011 391.645782,286.502106 391.195679,286.866974 
	C390.995453,287.007843 391.000000,287.000031 390.996979,286.741272 
	C391.007568,286.309601 391.021149,286.136688 391.034698,285.963806 
	C391.034698,285.963806 391.477203,285.924561 391.699188,285.917175 
z"/>
<path fill="#000000" opacity="1.000000" stroke="none" 
	d="
M364.004211,317.012878 
	C363.717377,316.785461 363.641785,316.519775 363.905060,316.105469 
	C364.022095,316.001404 363.995453,315.980804 363.984772,316.239258 
	C363.975647,316.678558 363.977173,316.859467 363.978729,317.040375 
	C363.978729,317.040375 363.993622,317.019196 364.004211,317.012878 
z"/>
<path fill="#000000" opacity="1.000000" stroke="none" 
	d="
M511.990112,494.981750 
	C511.978455,494.967651 511.869720,495.249634 511.869720,495.249634 
	C511.869720,495.249634 511.880859,495.080597 511.955750,495.049469 
	C512.030640,495.018341 512.001770,494.995880 511.990112,494.981750 
z"/>
<path fill="#000000" opacity="1.000000" stroke="none" 
	d="
M390.899963,286.067719 
	C391.021149,286.136688 391.007568,286.309601 390.994537,286.742645 
	C390.866638,286.825165 390.717072,286.657806 390.622314,286.463684 
	C390.593109,286.403839 390.713409,286.271027 390.899963,286.067719 
z"/>
<path fill="#112A3D" opacity="1.000000" stroke="none" 
	d="
M507.516541,363.730896 
	C459.406616,363.993774 410.984528,364.012878 362.562469,363.998413 
	C360.589142,363.997833 358.615875,363.680634 356.313904,363.253265 
	C404.916199,362.996582 453.847168,362.993378 502.778107,363.018829 
	C504.253601,363.019592 505.728943,363.320251 507.516541,363.730896 
z"/>
<path fill="#112A3D" opacity="1.000000" stroke="none" 
	d="
M552.482239,363.720215 
	C540.421875,363.811157 528.055969,363.648956 515.353882,363.247437 
	C527.403992,363.161133 539.790344,363.314117 552.482239,363.720215 
z"/>
<path fill="#112A3D" opacity="1.000000" stroke="none" 
	d="
M364.103638,316.927429 
	C363.977173,316.859467 363.975647,316.678558 363.974335,316.225952 
	C364.059235,316.240997 364.143890,316.527740 364.103638,316.927429 
z"/>
<path fill="#85B0F3" opacity="1.000000" stroke="none" 
	d="
M473.965881,406.077026 
	C500.578308,406.034119 527.190796,405.968567 553.803040,406.021057 
	C555.022400,406.023468 556.204529,407.188538 557.468018,407.627960 
	C558.683838,408.050720 559.982849,408.234253 561.343933,407.910950 
	C555.105774,407.389404 548.768005,407.595032 542.432434,407.540131 
	C535.131653,407.476868 527.833679,407.098328 520.532837,407.031830 
	C517.569214,407.004822 514.601318,407.632629 511.635559,407.630829 
	C499.295319,407.623260 486.955200,407.489349 474.269897,406.976868 
	C473.924744,406.551880 473.965881,406.076996 473.965881,406.077026 
z"/>
<path fill="#6299BC" opacity="1.000000" stroke="none" 
	d="
M473.507324,405.997681 
	C473.965881,406.076996 473.924744,406.551880 473.942841,406.789368 
	C471.094513,407.367706 468.229095,407.990814 465.361450,408.001495 
	C451.432617,408.053375 437.503204,407.931885 423.573944,407.892395 
	C418.990601,407.879395 414.407104,407.928223 409.454651,407.622559 
	C409.049286,406.888580 409.012970,406.480835 408.976654,406.073059 
	C430.334015,406.021484 451.691406,405.969910 473.507324,405.997681 
z"/>
<path fill="#85B0F3" opacity="1.000000" stroke="none" 
	d="
M408.513580,406.004211 
	C409.012970,406.480835 409.049286,406.888580 409.028076,407.599274 
	C404.006470,407.698883 399.043915,407.431122 394.077789,407.309662 
	C388.647766,407.176819 383.214478,407.179260 377.466888,407.027832 
	C378.667389,406.596954 380.180817,405.985931 381.700287,405.970428 
	C390.482910,405.880890 399.266937,405.931915 408.513580,406.004211 
z"/>
<path fill="#85B0F3" opacity="1.000000" stroke="none" 
	d="
M380.477020,541.018982 
	C380.936584,541.081360 381.003174,541.496338 380.968689,541.703796 
	C370.527710,541.911255 360.121185,541.911255 349.714691,541.911255 
	C349.715118,541.593018 349.715515,541.274841 349.715942,540.956604 
	C359.816437,540.956604 369.916962,540.956604 380.477020,541.018982 
z"/>
<path fill="#112A3D" opacity="1.000000" stroke="none" 
	d="
M330.926788,544.243591 
	C331.824341,543.790466 332.671600,543.610474 333.753784,543.199829 
	C334.325256,543.525696 334.661743,544.082153 334.998230,544.638611 
	C333.624298,544.597961 332.250397,544.557312 330.926788,544.243591 
z"/>
<path fill="#112A3D" opacity="1.000000" stroke="none" 
	d="
M415.946777,563.760559 
	C415.719666,564.491211 415.416077,564.971313 415.067261,565.738220 
	C414.851868,566.013916 414.681641,566.002869 414.255737,565.995972 
	C414.000000,566.000000 414.001221,566.000000 414.001221,566.000000 
	C414.624268,565.170044 415.247314,564.340027 415.946777,563.760559 
z"/>
<path fill="#112A3D" opacity="1.000000" stroke="none" 
	d="
M282.973450,611.983093 
	C283.278748,610.869690 283.584015,609.756348 283.965332,608.302490 
	C284.041382,607.962097 284.016022,607.984070 284.002960,607.991516 
	C283.852539,609.232849 283.715210,610.466675 283.292938,611.854980 
	C283.007996,612.009338 282.973480,611.983093 282.973450,611.983093 
z"/>
<path fill="#112A3D" opacity="1.000000" stroke="none" 
	d="
M289.974640,596.033569 
	C290.406250,595.982056 290.847015,595.908386 291.290894,595.869019 
	C291.323822,595.866028 291.378723,596.110168 291.423431,596.239441 
	C291.043549,596.267151 290.663635,596.294861 290.141846,596.157532 
	C289.999939,595.992493 289.984589,596.019897 289.974640,596.033569 
z"/>
<path fill="#112A3D" opacity="1.000000" stroke="none" 
	d="
M282.207458,614.161255 
	C282.017120,614.533081 281.826782,614.904907 281.636475,615.276733 
	C281.602325,614.913269 281.568207,614.549866 281.774628,614.094727 
	C282.015198,614.002991 282.207428,614.161255 282.207458,614.161255 
z"/>
<path fill="#112A3D" opacity="1.000000" stroke="none" 
	d="
M283.023987,612.024292 
	C282.892487,612.600098 282.745056,613.161011 282.402527,613.941528 
	C282.207428,614.161255 282.015198,614.002991 281.918335,613.921265 
	C282.064209,613.343384 282.306915,612.847290 282.761536,612.167114 
	C282.973480,611.983093 283.007996,612.009338 283.023987,612.024292 
z"/>
<path fill="#112A3D" opacity="1.000000" stroke="none" 
	d="
M289.520691,599.517212 
	C289.463348,599.550232 289.578064,599.484192 289.520691,599.517212 
z"/>
<path fill="#112A3D" opacity="1.000000" stroke="none" 
	d="
M304.036011,572.054077 
	C303.949280,572.091797 303.795837,572.062195 303.737000,571.944702 
	C303.831573,571.856689 303.969330,571.986755 304.036011,572.054077 
z"/>
<path fill="#112A3D" opacity="1.000000" stroke="none" 
	d="
M411.881012,570.072815 
	C412.032379,570.138184 412.039764,570.319214 412.036316,570.772034 
	C411.868622,570.864746 411.692596,570.697693 411.568604,570.498169 
	C411.537933,570.448853 411.676331,570.294556 411.881012,570.072815 
z"/>
<path fill="#112A3D" opacity="1.000000" stroke="none" 
	d="
M413.999878,566.000000 
	C413.898102,566.028320 413.796448,566.056641 413.848022,566.042480 
	C414.001221,566.000000 414.000000,566.000000 413.999878,566.000000 
z"/>
<path fill="#112A3D" opacity="1.000000" stroke="none" 
	d="
M328.540985,546.560608 
	C328.465027,546.609314 328.442230,546.409668 328.442230,546.409668 
	C328.442230,546.409668 328.616943,546.511902 328.540985,546.560608 
z"/>
</svg>
